<?xml version="1.0" encoding="UTF-8" standalone="no"?>
<svg
   version="1.1"
   width="909.88599"
   height="894.10175"
   viewBox="0 0 909.88599 894.10175"
   xml:space="preserve"
   id="svg6"
   sodipodi:docname="Mediamodifier-Design (3).svg"
   xmlns:inkscape="http://www.inkscape.org/namespaces/inkscape"
   xmlns:sodipodi="http://sodipodi.sourceforge.net/DTD/sodipodi-0.dtd"
   xmlns="http://www.w3.org/2000/svg"
   xmlns:svg="http://www.w3.org/2000/svg"><sodipodi:namedview
   id="namedview6"
   pagecolor="#ffffff"
   bordercolor="#000000"
   borderopacity="0.25"
   inkscape:showpageshadow="2"
   inkscape:pageopacity="0.0"
   inkscape:pagecheckerboard="0"
   inkscape:deskcolor="#d1d1d1" />&#10;<desc
   id="desc1">Created with Fabric.js 5.2.4</desc>&#10;<defs
   id="defs1" />&#10;&#10;&#10;<g
   vector-effect="non-scaling-stroke"
   id="g5"
   transform="translate(446.36999,457.17564)">&#10;		<g
   id="g2"
   transform="matrix(296.60065,0,0,292.29039,8.3701119,-10.118322)"
   inkscape:export-filename="..\Desktop\lo.svg"
   inkscape:export-xdpi="53.638767"
   inkscape:export-ydpi="53.638767">&#10;<linearGradient
   id="SVGID_SvgjsLinearGradient2666_5"
   gradientUnits="userSpaceOnUse"
   gradientTransform="scale(1.0014315,0.99857053)"
   x1="0.96544498"
   y1="0.97189218"
   x2="4.0287738"
   y2="0.97189218">&#10;<stop
   offset="0%"
   style="stop-color:rgb(0,255,143);stop-opacity: 1"
   id="stop1" />&#10;<stop
   offset="100%"
   style="stop-color:rgb(0,161,255);stop-opacity: 1"
   id="stop2" />&#10;</linearGradient>&#10;<path
   style="opacity:1;fill:url(#SVGID_SvgjsLinearGradient2666_5);fill-rule:nonzero;stroke:none;stroke-width:1;stroke-linecap:butt;stroke-linejoin:miter;stroke-miterlimit:4;stroke-dasharray:none;stroke-dashoffset:0"
   vector-effect="non-scaling-stroke"
   transform="translate(-2.5,-2.5)"
   d="M 2.52319,1.481 C 2.5937,1.43516 2.66304,1.3874 2.73494,1.34386 2.90876,1.23861 3.08379,1.13537 3.25826,1.03119 3.271149,1.02434 3.283334,1.016241 3.29464,1.00701 3.340157,0.9640459 3.4093742,0.9583719 3.46128,0.99335 c 0.029021,0.0135811 0.050365,0.0395313 0.058091,0.0706275 0.00773,0.031096 0.00101,0.064018 -0.018281,0.089603 -0.010039,0.016097 -0.013239,0.035535 -0.00889,0.054 0.023251,0.051704 0.00667,0.1126339 -0.03957,0.14543 -0.07111,0.05572 -0.14493,0.108 -0.21772,0.16152 -0.02725,0.02 -0.05487,0.0396 -0.08232,0.05938 L 3.1598,1.584 C 3.2368,1.53749 3.31348,1.49035 3.39102,1.44472 3.4351,1.41879 3.48062,1.39532 3.52552,1.37079 L 3.54124,1.363 C 3.596649,1.330247 3.6677236,1.343351 3.70781,1.39371 3.740448,1.450454 3.721019,1.5229082 3.66437,1.55571 3.55178,1.64427 3.43088,1.72244 3.31992,1.81288 3.03655,2.04388 2.75673,2.27915 2.47561,2.51288 2.46688,2.51975 2.460943,2.529564 2.45892,2.54049 2.49038,2.51909 2.52214,2.49815 2.55324,2.47623 2.7965381,2.2957777 3.0514749,2.1315712 3.31639,1.98468 3.39809,1.942568 3.4830558,1.90712 3.57046,1.87868 3.628462,1.853397 3.6962167,1.87514 3.72867,1.92946 3.759449,1.983962 3.749092,2.0524294 3.70357,2.09539 3.66721,2.13472 3.62141,2.1652 3.58113,2.2011 3.56913,2.21183 3.55172,2.22901 3.55346,2.24078 3.5588764,2.3115969 3.5217773,2.3788827 3.459,2.4121 3.27482,2.55402 3.08839,2.69304 2.903,2.83341 2.88595,2.84632 2.87025,2.86102 2.85392,2.87489 L 2.85937,2.88423 C 2.90293,2.8661 2.94779,2.85054 2.98983,2.82939 3.1439,2.75186 3.29629,2.67098 3.45093,2.59461 3.504599,2.568269 3.560686,2.547171 3.61841,2.53161 3.667974,2.514712 3.7223649,2.53736 3.74529,2.58444 3.767713,2.633325 3.74997,2.6912545 3.70402,2.7192 3.66373,2.74967 3.62018,2.77583 3.57807,2.8039 L 3.58484,2.8163 C 3.64716,2.78581 3.70938,2.75508 3.77184,2.72492 3.80342,2.70968 3.83484,2.69364 3.86748,2.68116 3.9176376,2.6525045 3.981473,2.6685762 4.012082,2.7175662 4.042691,2.7665562 4.0291462,2.830975 3.9814,2.86349 3.91025,2.92181 3.83506,2.97536 3.76001,3.02873 3.65392,3.10417 3.54633,3.17748 3.43957,3.25196 3.425024,3.2612 3.413654,3.274669 3.40699,3.29056 3.47169,3.26714 3.53705,3.24539 3.60091,3.21986 3.67291,3.19109 3.74315,3.15806 3.81491,3.12876 3.83798,3.11969 3.862139,3.113673 3.88677,3.11087 3.924108,3.10344 3.96196,3.121037 3.98035,3.15437 3.998575,3.187546 3.994261,3.228554 3.96953,3.25721 L 3.94628,3.28928 C 3.96262,3.29521 3.97603,3.29942 3.98891,3.30489 4.019044,3.315842 4.03773,3.346035 4.03409,3.37789 4.03644,3.412118 4.011782,3.442279 3.97777,3.44678 3.888746,3.4639351 3.8039601,3.4984149 3.72823,3.54826 3.49604,3.66254 3.26538,3.77995 3.03341,3.89471 2.9896322,3.9150208 2.9447674,3.9329013 2.89902,3.94827 2.8445344,3.9729297 2.7802103,3.9551458 2.74613,3.906 2.72813,3.883 2.71333,3.88518 2.69013,3.89393 2.57391,3.93782 2.45778,3.98218 2.34,4.02155 2.3061124,4.0300893 2.2708537,4.0317285 2.23632,4.02637 2.1908709,4.0235992 2.1520197,3.992671 2.13913,3.949 2.1237009,3.9063448 2.1352735,3.8585976 2.16852,3.82774 2.1918492,3.8071145 2.2128874,3.7840345 2.23127,3.7589 2.2041004,3.7710054 2.1762227,3.7814545 2.14779,3.79019 2.105079,3.8037406 2.0608094,3.8117692 2.01606,3.81408 1.9730693,3.8156842 1.9328972,3.7927381 1.9124399,3.7548927 1.8919826,3.7170474 1.8947895,3.6708689 1.91968,3.63578 L 1.93115,3.6129 c -0.01768,0 -0.031,-0.00109 -0.04407,1.9e-4 C 1.8297814,3.6267328 1.7699702,3.6039277 1.7363,3.5556 1.7248734,3.5472794 1.7099808,3.5453923 1.69684,3.5506 1.6207,3.59682 1.54806,3.64906 1.47046,3.69251 1.4061744,3.7291311 1.3386607,3.7597699 1.26877,3.78404 1.2133998,3.8020183 1.1529432,3.7794626 1.12288,3.72961 1.1094679,3.7134156 1.0912595,3.7018988 1.07088,3.69672 1.027731,3.6900974 0.99135332,3.6610408 0.9753584,3.6204223 0.95936349,3.5798038 0.96616195,3.5337451 0.99321,3.49948 1.0501544,3.4328894 1.1110261,3.3697603 1.1755,3.31043 Q 1.3507,3.13501 1.52692,2.9606 C 1.537613,2.95087 1.544759,2.937847 1.54723,2.9236 1.529052,2.93295 1.510355,2.941265 1.49123,2.94849 1.453481,2.963489 1.414204,2.974314 1.3741,2.98077 1.33625,2.98688 1.297856,2.97361 1.271854,2.945439 1.2458521,2.9172624 1.2357045,2.8779287 1.24483,2.84069 1.24933,2.81242 1.23961,2.80209 1.21672,2.79114 1.1838559,2.7791641 1.1574565,2.754054 1.1438514,2.7218302 1.1302464,2.6896064 1.1306625,2.6531747 1.145,2.62127 1.1642278,2.5670998 1.2005782,2.5206674 1.24855,2.489 1.29162,2.45714 1.3335,2.42367 1.37511,2.39152 1.3469193,2.3587461 1.3340724,2.3154901 1.3398033,2.2726415 1.3455343,2.2297929 1.3692973,2.1914335 1.40511,2.16722 1.4989,2.0713 1.58304,1.96528 1.68175,1.87499 1.8175,1.75081 1.96165,1.63562 2.10462,1.51957 2.3221574,1.3391062 2.5592494,1.1836109 2.81145,1.056 2.837459,1.042665 2.864213,1.030835 2.89158,1.02057 2.921224,1.007861 2.95571,1.01849 2.97305,1.04569 2.990554,1.070892 2.98742,1.105027 2.96562,1.12662 2.953201,1.140969 2.938843,1.153516 2.92296,1.1639 Q 2.7351,1.30465 2.5469,1.4449 C 2.53601,1.45306 2.52641,1.4629 2.51621,1.47203 Z"
   stroke-linecap="round"
   id="path2" />&#10;</g>&#10;		&#10;</g>&#10;</svg>
