<svg xmlns="http://www.w3.org/2000/svg" viewBox="0 0 512 512"><defs><style>.cls-1,.cls-13{fill:#fed9be;}.cls-15,.cls-2{fill:#f7bf9a;}.cls-3{fill:#b2b2b2;}.cls-4{fill:#999;}.cls-5{fill:#af9a63;}.cls-6{fill:#8e7b51;}.cls-7{fill:#755026;}.cls-8{fill:#3e2945;}.cls-9{opacity:0.21;}.cls-10{fill:#3f3f44;}.cls-11{opacity:0.63;}.cls-12{fill:#f2a88f;}.cls-13,.cls-15{fill-rule:evenodd;}.cls-14{fill:#f79820;}.cls-16{fill:#90278e;}.cls-17{fill:#f88f1c;}.cls-18{fill:#f9ac67;}.cls-19{fill:#f79c41;}.cls-20{fill:#8e3d7c;}.cls-21{fill:#d49f77;}.cls-22{fill:#fff;}.cls-23{fill:#f2f2f2;}.cls-24{opacity:0.35;}.cls-25{fill:#2a1d30;}.cls-26{fill:gray;}.cls-27{fill:#e6e6e6;}.cls-28{fill:#543966;}</style></defs><title>cave, man, emoticon, emoji, sticker, inventor</title><g id="social_media" data-name="social media"><g id="NERD"><path class="cls-1" d="M364.5,372.2a10.29,10.29,0,0,1-14.37-2.27l-4.35-6A10.28,10.28,0,0,1,348,349.58h0a10.28,10.28,0,0,1,14.36,2.26l4.36,6a10.29,10.29,0,0,1-2.26,14.37Z"/><path class="cls-2" d="M106.8,358.78a10.29,10.29,0,0,1,2.27-14.37l6-4.35a10.28,10.28,0,0,1,14.36,2.26h0a10.28,10.28,0,0,1-2.26,14.36l-6,4.36a10.29,10.29,0,0,1-14.37-2.26Z"/><path class="cls-3" d="M369.58,327.67l-8.15-1.89s0,0,0,.06a6.33,6.33,0,0,1-.28,1.09c-1.75,5.85-4,13.68-6.2,21.55s-4.26,15.75-5.77,21.69a7.82,7.82,0,0,1-.31,1.08,1.38,1.38,0,0,0-.16,1.07l.39,2.16c.26,1.36.55,2.55.78,3.54s.47,1.76.61,2.29l.25.82.6-.59c.37-.39,1-1,1.6-1.7s1.47-1.63,2.33-2.66l1.35-1.65a1.33,1.33,0,0,0,.36-1,7.61,7.61,0,0,1,.24-1.08c1.49-5.84,3.54-13.61,5.68-21.34s4.38-15.44,6.1-21.2a6,6,0,0,1,.36-1,1.48,1.48,0,0,0,.24-1Z"/><path class="cls-4" d="M369.58,327.67l-3.8-.88-15,54.33.6-.59c.37-.39,1-1,1.6-1.7s1.47-1.63,2.33-2.66l1.35-1.65a1.33,1.33,0,0,0,.36-1,7.61,7.61,0,0,1,.24-1.08c1.49-5.84,3.54-13.61,5.68-21.34s4.38-15.44,6.1-21.2a6,6,0,0,1,.36-1,1.48,1.48,0,0,0,.24-1Z"/><ellipse class="cls-3" cx="365.56" cy="326.41" rx="3.34" ry="13.4" transform="matrix(0.23, -0.97, 0.97, 0.23, -35.15, 608.57)"/><path class="cls-5" d="M145.36,386.55a96.15,96.15,0,0,1,.21-10h0c.84.87,1.61,1.68,2.26,2.41,1.1,1.22,2,2.2,2.52,2.88l0,0a1.41,1.41,0,0,0,2.06-.2l8.76-8.88a1.4,1.4,0,0,0,.16-2.07l0,0c-.7-.56-1.73-1.39-3-2.47s-2.81-2.4-4.53-4l-2.73-2.49-3-2.8a27.91,27.91,0,0,1-3-3.28c-1-1.22-1.91-2.53-3-3.75a18.55,18.55,0,0,0-3.82-3.27c-1.48-.93-3.2-1.66-4.71-2.65a16.44,16.44,0,0,1-2.13-1.67q-1-.89-2-1.84l-2-1.92-1.95-2c-2.56-2.74-5.17-5.51-8-8.05a77.16,77.16,0,0,0-9-6.92,99.25,99.25,0,0,1-9-6.46,39.86,39.86,0,0,1-3.84-3.58,37.33,37.33,0,0,1-3.14-4c-1-1.37-1.91-2.7-2.88-3.92a28.83,28.83,0,0,0-3.07-3.25c-2.11-1.93-4.11-3.62-6-5s-3.54-2.61-4.93-3.52-2.56-1.57-3.35-2-1.25-.64-1.25-.64l-10.48,12s.3.38.88,1.06,1.49,1.63,2.67,2.79,2.62,2.54,4.37,4,3.75,3.12,6,4.81a33.56,33.56,0,0,0,3.75,2.42c1.38.75,2.87,1.45,4.4,2.17a37.31,37.31,0,0,1,4.51,2.46,35.4,35.4,0,0,1,4.14,3.2A84.22,84.22,0,0,1,99,334a82.43,82.43,0,0,0,8,7.95c2.85,2.48,5.94,4.7,8.94,6.94l2.21,1.7,2.13,1.75q1,.89,2,1.81a16.12,16.12,0,0,1,1.86,1.93c1.12,1.39,2,3,3,4.39a18.47,18.47,0,0,0,3.57,3.48c1.3,1,2.68,1.82,4,2.68a24.56,24.56,0,0,1,3.48,2.75l1.69,1.58c0,.55-.09,1.12-.14,1.7-.15,1.67-.34,3.46-.57,5.26-.46,3.59-1.11,7.21-1.74,10l0,.08a2.91,2.91,0,0,0,3.43,3.76l.26,0a5.28,5.28,0,0,0,4.29-5Z"/><path class="cls-6" d="M147.83,379c1.1,1.22,2,2.2,2.52,2.88l0,0a1.41,1.41,0,0,0,2.06-.2l3.45-3.5a29,29,0,0,1-5.92-3.71c-2.93-2.71-6.1-5.11-8.93-7.93s-5.76-5.68-8.79-8.37c-.74-.66-8-6.82-7.86-6.92a.63.63,0,0,1-.85.11q-9.73-9-19.85-17.64c-6.38-5.45-12.55-11.34-19.41-16.23-3.26-2.32-6.92-3.88-10.59-5.62-2.11-1-5.29-2.05-5.39-4.9-.1-2.69,1.06-4.51-1-6.4a17.69,17.69,0,0,0-2.66-2l-4.1,4.69s.3.38.88,1.06,1.49,1.63,2.67,2.79,2.62,2.54,4.37,4,3.75,3.12,6,4.81a33.56,33.56,0,0,0,3.75,2.42c1.38.75,2.87,1.45,4.4,2.17a37.31,37.31,0,0,1,4.51,2.46,35.4,35.4,0,0,1,4.14,3.2A84.22,84.22,0,0,1,99,334a82.43,82.43,0,0,0,8,7.95c2.85,2.48,5.94,4.7,8.94,6.94l2.21,1.7,2.13,1.75q1,.89,2,1.81a16.12,16.12,0,0,1,1.86,1.93c1.12,1.39,2,3,3,4.39a18.47,18.47,0,0,0,3.57,3.48c1.3,1,2.68,1.82,4,2.68a24.56,24.56,0,0,1,3.48,2.75l1.69,1.58c0,.55-.09,1.12-.14,1.7-.15,1.67-.34,3.46-.57,5.26-.46,3.59-1.11,7.21-1.74,10l0,.08a2.91,2.91,0,0,0,3.43,3.76l.26,0a5.28,5.28,0,0,0,4.29-5v-.08a96.16,96.16,0,0,1,.21-10h0C146.41,377.44,147.18,378.25,147.83,379Z"/><path class="cls-3" d="M101.33,265.93c2.28-2.48-.09-6.37-2.41-8.82L88.42,246a8.8,8.8,0,0,0-3.93-2.85c-2.34-.6-4.68.79-6.7,2.11-21.17,13.87-43,28.44-56.21,50.05-2.94,4.82-5.45,10.14-5.57,15.79s2.67,11.66,7.85,13.91a21.14,21.14,0,0,0,8.06,1.28c7.7.15,15.82-.33,22.34-4.45a44.83,44.83,0,0,0,8.45-7.63l24.74-26.47c6.52-7,13.4-14.77,13.94-24.3"/><path class="cls-4" d="M99.56,257.83a20.85,20.85,0,0,1-4.64,9.61c-2.34,2.54-5.33,5.09-7.64,7.69-3.43,3.85-7,7.23-9.85,11.59a70,70,0,0,1-20.2,20.19,152.31,152.31,0,0,1-13.87,8.25c-5.1,2.6-10.36,2.21-15.77,4a2.09,2.09,0,0,1-2.62-2c-.14-3.69,1-6.14-3.23-7.61-.72-.25-1.77,1-2.64.5a12.32,12.32,0,0,1-2.8-1.86,21,21,0,0,0-.29,2.92c-.12,5.65,2.67,11.66,7.85,13.91a21.14,21.14,0,0,0,8.06,1.28c7.7.15,15.82-.33,22.34-4.45a44.83,44.83,0,0,0,8.45-7.63l24.74-26.47c6.52-7,13.4-14.77,13.94-24.3l-.05,2.51C103.4,263.68,101.63,260.28,99.56,257.83Z"/><path class="cls-7" d="M81.45,333.84a4,4,0,0,1-3.55-5.79,73.14,73.14,0,0,1,14.26-19.4,4,4,0,0,1,5.56,5.71A65.18,65.18,0,0,0,85,331.66,4,4,0,0,1,81.45,333.84Z"/><path class="cls-7" d="M75.46,321.87a4,4,0,0,1-2.85-6.78,64.68,64.68,0,0,1,21.51-14.44,4,4,0,0,1,3,7.38,56.62,56.62,0,0,0-18.84,12.65A4,4,0,0,1,75.46,321.87Z"/><path class="cls-7" d="M72.92,315.7A4,4,0,0,1,70,309a59.55,59.55,0,0,1,20.26-14.13,4,4,0,0,1,3.09,7.35,51.49,51.49,0,0,0-17.53,12.23A4,4,0,0,1,72.92,315.7Z"/><path class="cls-7" d="M81,299.09c-6.76,0-13.31-2.46-18.82-4.53l-14.49-5.44c-5.3-2-10.77-4-16.32-4a4.26,4.26,0,0,0-2.3.51A2.66,2.66,0,1,1,24,284c.83-2.64,3.57-4.22,7.33-4.22h0c6.51,0,12.71,2.33,18.19,4.39L64,289.58c7.93,3,15,5.3,21.72,3.62a2.66,2.66,0,1,1,1.3,5.15A24.81,24.81,0,0,1,81,299.09Z"/><path class="cls-7" d="M66,317.81a2.73,2.73,0,0,1-.58-.06,2.66,2.66,0,0,1-2-3.17A67.63,67.63,0,0,0,65,298.48c-.12-5.38-.9-9.49-2.45-12.94-2.12-4.71-6-8.7-9.72-12.55l-.21-.21A14,14,0,0,1,49,267.54a10,10,0,0,1,1.43-8.62,16.18,16.18,0,0,1,6-5.06,2.66,2.66,0,1,1,2.52,4.68,11.12,11.12,0,0,0-4.08,3.36,4.72,4.72,0,0,0-.79,4,9.84,9.84,0,0,0,2.39,3.2l.21.21c4.06,4.19,8.26,8.51,10.75,14.08,1.85,4.12,2.78,8.88,2.92,15a72.83,72.83,0,0,1-1.7,17.37A2.66,2.66,0,0,1,66,317.81Z"/><path class="cls-8" d="M130.17,156.77c1.71-17.28,30.85-31.45,30.85-31.45s-18.13,10.41-22.64,4.4,3.44-15.85,29.15-24.59c0,0-13.21-7.52-11.22-15.74s40.77,1.52,40.77,1.52S180.71,74.35,189.65,73s27.94,8.16,27.94,8.16-15.19-6.91-13-13.92,31.37,9.87,31.37,9.87-13.71-20.37-1.32-18.55c7.9,1.16,19.19,17.84,19.19,17.84s-11.55-27.74-.07-27.92,12.57,27.32,12.57,27.32S273.86,48,281.06,50.31s-6.74,25.47-6.74,25.47S313.5,44.86,320,55.92s-17.11,18.4-19.49,19.49S331.42,64.88,335,74.5s-13.2,14.08-19,16c0,0,41.94-5.84,43.94,3.43s-22.37,9.18-27.14,8.9c0,0,34.28,10.94,33,18.16s-9.35,3.46-22.41.79c0,0,22.34,8.7,22,18.7s-24.19-.6-24.19-.6,21.42,6.44,24.47,16.14-26.52,18.73-26.52,18.73H163.19S128.47,174,130.17,156.77Z"/><g class="cls-9"><ellipse class="cls-10" cx="249.51" cy="455.31" rx="83.37" ry="8.23"/></g><path class="cls-2" d="M280.83,422.15s-.78,29.58,8,31.17,29,5.59,32.34,0-3-18.3-21.62-21.54S280.83,422.15,280.83,422.15Z"/><path class="cls-2" d="M294.84,453.52c2.85.42,10.43-21.82,16.36-47.79h-39C285.31,420.15,282.85,451.76,294.84,453.52Z"/><path class="cls-2" d="M217.32,422.86s.78,29.58-8,31.17-29,5.59-32.34,0,3-18.3,21.62-21.54S217.32,422.86,217.32,422.86Z"/><path class="cls-2" d="M203.48,454.22c-2.85.42-10.43-21.82-16.36-47.79h39C213,420.86,215.47,452.47,203.48,454.22Z"/><g class="cls-11"><polygon class="cls-12" points="281.85 426.31 298.32 416.57 307.02 422.5 310.81 412.19 294.07 408.21 279.25 419.69 281.85 426.31"/></g><g class="cls-11"><polygon class="cls-12" points="190.48 419.86 194.26 416.03 208.72 423.75 219.46 416.85 222.36 410.63 189.56 410.63 188.81 413.68 190.48 419.86"/></g><path class="cls-2" d="M303.7,280.93l-20.31-4.32-69.06,0-20.22,4.28c-12.4,3.66-21.32,19.74-21.32,38.42l3.39,63.58c21.66,25.78,123,24.78,143-3.5l5.8-60.06c0-18.68-8.92-34.76-21.32-38.42Zm0,0"/><path class="cls-1" d="M319.22,379.41l5.8-60.06c0-18.68-8.92-34.76-21.32-38.42h0l-20.31-4.32-69.06,0-20.22,4.28,80.72,20.72,44.38,77.77M303.7,279.88"/><path class="cls-13" d="M330.79,269c.47,3.48,2.53,13.91,2.53,13.91s33.86,73.23,21,80.34S302.9,283.39,305,282.11,330.79,269,330.79,269Z"/><ellipse class="cls-14" cx="278.04" cy="305.78" rx="6.9" ry="5.23" transform="translate(-129.07 234.6) rotate(-37.8)"/><path class="cls-15" d="M185.22,273.25c-2.07,2.87-8.84,11.19-8.84,11.19s-64.79,49.32-56.65,61.65S203.28,299,202,296.9,185.22,273.25,185.22,273.25Z"/><path class="cls-16" d="M241.68,391c-5.56-2.21-14.8-5-12-7.24,2.56-2,10.93-9.31,17-14.64,3.88-3.38,10-4.17,14.08-1.7,3.2,1.91,7,4.22,10.46,6.38,7.91,5,2.27,9.85,2.27,9.85l-4.07,2-13.54,4.14S247.44,393.31,241.68,391Z"/><path class="cls-17" d="M203.7,367.3c-9.91,2.09-19.39,5.72-29.25,7.43,1,13.26,2.95,32,6.75,44.82l11.23-7.86,17.34,7.76,16-11.33,3.38,2.5-19.81-44.44C207.44,366.54,205.57,366.91,203.7,367.3Z"/><path class="cls-18" d="M315.05,358.54c-.55-.42-1.07-.86-1.6-1.3a2.21,2.21,0,0,1-.94-.82,46.2,46.2,0,0,1-14.13-21.18C293.07,319,293.67,301.59,290,285a2.06,2.06,0,0,1,.61-2c-.24-1.69-.49-3.39-.74-5.08a52.71,52.71,0,0,0-10.59-1.41,2.11,2.11,0,0,1-.2,1.25c-1.29,2.54-2.52,5.11-3.77,7.67-2.21,13.54-10.38,41.06-11,41.21-.09,0-.15.09-.24.13l57.15,43.76c.18-1.86.32-3.61.44-5.29A14,14,0,0,1,315.05,358.54Z"/><path class="cls-17" d="M314.68,418.63l-1.21.45,1.06.48Z"/><path class="cls-19" d="M264.13,326.8c-3.18,1.33-26.85,23.51-28,24.36-8.77,6.45-16.44,13-26.81,15l19.81,44.44,12.58,9.28,17.11-8.72,20.53,12.57,17.79-12.06,16.34,7.38,1.21-.45c.83-5,4.9-30.13,6.61-48.06Z"/><path class="cls-16" d="M298.38,335.25a88.58,88.58,0,0,1-2.75-11l-5.39,2.33c-3.79,1.63-5.39,4.87-3.56,7.19l0,0c1.83,2.32,7.43,4.22,12.44,4.22h.32C299.11,337.11,298.7,336.23,298.38,335.25Z"/><path class="cls-16" d="M308.55,352.59a127.56,127.56,0,0,0-14.42,7.2c-4.86,2.88-2.92,6.81-1.79,9.33S319,375.29,319,375.29s.83-.92,2-2.31c.37-3.6.65-7,.82-9.9A58.14,58.14,0,0,1,308.55,352.59Z"/><path class="cls-16" d="M319.22,388.24l-3.6-.05-6.58,0c-6.29,0-12.42.11-16.33.11-6.73,0-8.83,5.39-9.46,9.43-.38,2.42,3,6.15,6.82,8.26,4.29,2.36,19.44,3.32,26.06,3.62C317,403.8,318.17,396.11,319.22,388.24Z"/><path class="cls-16" d="M242.09,415.5s5.22-.82,4.18-5.07c-.3-1.23-.48-2.47-.6-3.24-.3-2-1.68-3.41-4.82-4.5s-11.41-3.19-11.41-3.19-8.39-2.81-12.49-.47c-.95.54-2.52,1.52-3.28,2.07-5.16,3.73.89,10,.89,10l5.7,1.13,5.47-4.08,12.09,8.72Z"/><path class="cls-16" d="M196.54,396.73c3.19-.12,8-2.31,8.53-8.87s-8.54-8.37-8.54-8.37l-21.88-2.15c.47,5.91,1.13,12.67,2,19.41C182.37,396.77,194.13,396.82,196.54,396.73Z"/><path class="cls-16" d="M249.56,342.46a71.46,71.46,0,0,0,10-1.26c2.08-.72.89-4.76-.54-8.25A72.75,72.75,0,0,1,249.56,342.46Z"/><path class="cls-16" d="M288.28,297.72a66.13,66.13,0,0,0-14-4.24c-.37,3.26-.71,6.56-1.15,9.83,1.44-.36,2.93-.78,4.48-1.28C289.38,298.24,288.28,297.72,288.28,297.72Z"/><ellipse class="cls-20" cx="252.04" cy="246.48" rx="57.96" ry="30.88"/><ellipse class="cls-21" cx="252.04" cy="239.78" rx="57.96" ry="30.88"/><path class="cls-2" d="M338.79,203.5c-5.57-27.38-8.88-59.47-28.59-82.83C268.31,71,190.4,96,169.77,145.29c-11.62,28.54-31,86.33,11.76,100.07C233.82,262,351.47,265.82,338.79,203.5Z"/><path class="cls-1" d="M211.84,145.29c10.09-24.08,33.89-42.38,60.47-49-40.29-10.83-87.21,12.41-102.54,49-11.62,28.54-31,86.33,11.76,100.07C205.63,253,243.61,258,276.32,255c-19.77-1.58-38.62-5.14-52.72-9.63C180.84,231.61,200.22,173.83,211.84,145.29Z"/><path class="cls-21" d="M158.42,152.53l.36.81a2.71,2.71,0,0,1-.15-.37C158.57,152.84,158.51,152.69,158.42,152.53Z"/><path class="cls-21" d="M158.81,153.39l0,0-.06-.09A.12.12,0,0,1,158.81,153.39Z"/><path class="cls-21" d="M158.63,153a2.71,2.71,0,0,0,.15.37l.06.09C158.94,153.6,158.85,153.41,158.63,153Z"/><path class="cls-21" d="M336.94,152.53l-.36.81a3.12,3.12,0,0,0,.15-.37C336.79,152.84,336.85,152.69,336.94,152.53Z"/><path class="cls-21" d="M336.55,153.39l0,0,.06-.09S336.56,153.37,336.55,153.39Z"/><path class="cls-21" d="M336.72,153a3.12,3.12,0,0,1-.15.37l-.06.09C336.42,153.6,336.51,153.41,336.72,153Z"/><path class="cls-8" d="M371.73,241.34c-2.4-8.93-21.63-22.49-21.63-22.49,26.78,6.94,17.17-8.6,17.17-8.6-4.81-9.59-27.12-16.87-27.12-16.87,29.52-3.31,11.67-14.88,11.67-14.88-17.17-9.26-41.88-7.6-41.88-7.6C324,165.28,325.39,156,325.39,156c-1.37-6-12.7-6.61-12.7-6.61-1.6.08-3.12.23-4.56.44-.48.07-.91.17-1.38.26-.92.16-1.85.32-2.71.53-.52.13-1,.29-1.5.43-.73.21-1.47.41-2.15.66-.5.18-1,.38-1.43.57s-1.23.5-1.8.77-.88.45-1.31.68-1,.56-1.52.85-.8.51-1.18.77-.87.6-1.28.9-.71.56-1.05.84-.72.61-1.06.92-.63.6-.93.9c-.14.14-.3.27-.43.41l0,0a25.56,25.56,0,0,0-6.28,10.89c9.12,9.62-.88,15.66-3.47,16.69S266,200.09,245.93,200.09s-30.18-12.15-32.73-13.16-12.59-7.07-3.47-16.69a25.56,25.56,0,0,0-6.28-10.89l0,0c-.13-.14-.29-.28-.43-.41q-.44-.45-.93-.9c-.34-.31-.69-.62-1.06-.92s-.69-.57-1.05-.84-.84-.61-1.28-.9-.77-.52-1.18-.77-1-.57-1.52-.85-.85-.46-1.31-.68-1.19-.52-1.8-.77-.93-.39-1.43-.57c-.68-.24-1.42-.45-2.15-.66-.5-.14-1-.3-1.5-.43-.86-.21-1.79-.37-2.71-.53-.47-.08-.9-.19-1.38-.26-1.44-.21-3-.36-4.56-.44,0,0-11.33.66-12.7,6.61,0,0,1.37,9.26,15.45,14.88,0,0-24.72-1.65-41.88,7.6,0,0-17.85,11.57,11.67,14.88,0,0-22.32,7.28-27.12,16.87,0,0-9.61,15.54,17.17,8.6,0,0-19.23,13.56-21.63,22.49,0,0-4.12,11.24,18.54-1.32,0,0-8.58,10.58-11.67,20.5s2.9,11,13.12,5.19c0,0-8.66,11-9.34,18.95s1.45,24.34,20.64-2.71c0,0-5.19,21.23-1.07,29.82,0,0,5.49,4.63,8.93,1.32s6.18-10.58,5.84-14.55c0,0,4.12,19.84,17.16,25.13,0,0,9.61,2.65,11.33-14.88,0,0,5.49,12.23,15.45,15.87s15.1-2,14.76-14.88c0,0,4.49,19.63,21.24,19.63s23-19.63,23-19.63c-.34,12.9,4.81,18.52,14.76,14.88s15.45-15.87,15.45-15.87c1.72,17.53,11.33,14.88,11.33,14.88,13-5.29,17.16-25.13,17.16-25.13-.34,4,2.4,11.24,5.84,14.55s8.93-1.32,8.93-1.32c4.12-8.6-1.07-29.82-1.07-29.82,19.19,27.05,21.32,10.64,20.64,2.71s-9.34-18.95-9.34-18.95c10.22,5.85,16.21,4.73,13.12-5.19S353.19,240,353.19,240C375.85,252.58,371.73,241.34,371.73,241.34Z"/><ellipse class="cls-22" cx="184.36" cy="156.73" rx="31.76" ry="31.75"/><circle class="cls-22" cx="309.07" cy="155.97" r="31.77"/><path class="cls-23" d="M309.07,177.5a31.75,31.75,0,0,1-31.31-26.65,31.77,31.77,0,1,0,62.64,0A31.76,31.76,0,0,1,309.07,177.5Z"/><path class="cls-23" d="M184.36,178.25A31.75,31.75,0,0,1,153,151.6a31.77,31.77,0,1,0,62.64,0A31.76,31.76,0,0,1,184.36,178.25Z"/><path class="cls-8" d="M175.82,156.53a7.41,7.41,0,1,1,7.41,7.41A7.41,7.41,0,0,1,175.82,156.53Z"/><path class="cls-8" d="M301.79,158a7.42,7.42,0,1,1,7.41,7.42A7.42,7.42,0,0,1,301.79,158Z"/><path class="cls-16" d="M250.57,390.18l1.82-.64h0c1.2-1.15,2.58-2.33,4.1-3.55l6.51-8.65,9.55-2.38,2.92-1.78-4.31-5.24s-31.82-4.14-35.51-3.33.8,15.34,1,17S250.57,390.18,250.57,390.18Z"/><path class="cls-8" d="M225.2,353.65a.88.88,0,0,1-.44-1q-.06-.65.67,0c.26.33-.06,1.35-.2,1.65A2.83,2.83,0,0,1,223,356c-.9.16-.52,1.54.38,1.38a4.28,4.28,0,0,0,3.47-3.63c.17-1.35-.73-3.79-2.53-2.93-1.41.68-1.32,3.07-.26,4s3.08-.07,2.48-1.55c-.34-.84-1.72-.47-1.38.38Z"/><path class="cls-8" d="M215.24,347.58a4.54,4.54,0,0,0,1.41-4c-.14-1-.84-2.84-2.18-2.54s-1.07,1.89-.58,2.73a4.91,4.91,0,0,0,3.81,2.33c.91.1.91-1.33,0-1.43a3.45,3.45,0,0,1-2-.86,3,3,0,0,1-.62-.76c-.26-.5-.3-.73-.12,0a3.21,3.21,0,0,1-.78,3.51c-.67.63.34,1.64,1,1Z"/><path class="cls-8" d="M216.34,327.4c-.21,1.32-.37,2.81.7,3.81a2,2,0,0,0,2.64.23,1.83,1.83,0,0,0,.29-2.28c-.73-1.06-2-.46-2.73.17s.3,1.59,1,1c-.62.5-.56-2.39-.54-2.56.14-.9-1.24-1.29-1.38-.38Z"/><path class="cls-8" d="M247,332.06c-.21,1.32-.37,2.81.7,3.81a2,2,0,0,0,2.64.23,1.83,1.83,0,0,0,.29-2.28c-.73-1.06-2-.46-2.73.17s.3,1.59,1,1c-.62.5-.56-2.39-.54-2.56.14-.9-1.24-1.29-1.38-.38Z"/><path class="cls-8" d="M310.85,331.31c-.21,1.32-.37,2.81.7,3.81a2,2,0,0,0,2.64.23,1.83,1.83,0,0,0,.29-2.28c-.73-1.06-2-.46-2.73.17s.3,1.59,1,1c-.62.5-.56-2.39-.54-2.56.14-.9-1.24-1.29-1.38-.38Z"/><path class="cls-8" d="M213.81,350.65c0,1.4.23,2.86,1.68,3.44a2.1,2.1,0,0,0,2.76-1.1,1.76,1.76,0,1,0-3.28-1.22.72.72,0,0,0,1.38.38v.69a.93.93,0,0,1-.91-.71,2.9,2.9,0,0,1-.21-1.49.72.72,0,0,0-1.43,0Z"/><path class="cls-8" d="M226.85,332.57c0,1.4.23,2.86,1.68,3.44a2.1,2.1,0,0,0,2.76-1.1,1.76,1.76,0,1,0-3.28-1.22.72.72,0,0,0,1.38.38v.69a.93.93,0,0,1-.91-.71,2.9,2.9,0,0,1-.21-1.49.72.72,0,0,0-1.43,0Z"/><path class="cls-8" d="M224.89,325.35c0,1.4.23,2.86,1.68,3.44a2.1,2.1,0,0,0,2.76-1.1,1.76,1.76,0,1,0-3.28-1.22.72.72,0,0,0,1.38.38v.69a.93.93,0,0,1-.91-.71,2.9,2.9,0,0,1-.21-1.49.72.72,0,0,0-1.43,0Z"/><path class="cls-8" d="M219.18,339.27c.59-1.24,1-2.62,0-3.78a2.11,2.11,0,0,0-3-.35c-2.09,1.66.75,4.51,2.33,2.61.58-.7-.42-1.72-1-1q.91-.59.83.49a3.62,3.62,0,0,1-.45,1.32c-.39.83.84,1.55,1.23.72Z"/><path class="cls-8" d="M237.9,347c.59-1.24,1-2.62,0-3.78a2.11,2.11,0,0,0-3-.35c-2.09,1.66.75,4.51,2.33,2.61.58-.7-.42-1.72-1-1q.91-.59.83.49a3.62,3.62,0,0,1-.45,1.32c-.39.83.84,1.55,1.23.72Z"/><path class="cls-8" d="M210.17,344.42c.59-1.24,1-2.62,0-3.78a2.11,2.11,0,0,0-3-.35c-2.09,1.66.75,4.51,2.33,2.61.58-.7-.42-1.72-1-1q.91-.59.83.49a3.62,3.62,0,0,1-.45,1.32c-.39.83.84,1.55,1.23.72Z"/><path class="cls-8" d="M235.66,334c0,1.4.23,2.86,1.68,3.44a2.1,2.1,0,0,0,2.76-1.1,1.76,1.76,0,1,0-3.28-1.22.72.72,0,0,0,1.38.38v.69a.93.93,0,0,1-.91-.71,2.9,2.9,0,0,1-.21-1.49.72.72,0,0,0-1.43,0Z"/><path class="cls-8" d="M301.4,335.7c0,1.4.23,2.86,1.68,3.44a2.1,2.1,0,0,0,2.76-1.1,1.76,1.76,0,1,0-3.28-1.22.72.72,0,0,0,1.38.38v.69a.93.93,0,0,1-.91-.71,2.9,2.9,0,0,1-.21-1.49.72.72,0,0,0-1.43,0Z"/><path class="cls-8" d="M208.48,359.39c.22,1.43.61,3,2.05,3.66a2.09,2.09,0,0,0,2.84-.92,1.71,1.71,0,0,0-.81-2.36c-1.32-.59-2.48.41-3.26,1.38-.57.71.43,1.73,1,1a5.39,5.39,0,0,1,.56-.66l.69-.45q-.06,1.28-.7.44c-.8-.48-.88-1.64-1-2.48s-1.51-.52-1.38.38Z"/><path class="cls-8" d="M206,336.16c.76-1.42,1.27-3.12.44-4.63-.48-.87-1.85-2.06-2.84-1.22s-.34,2.24.26,3a5.34,5.34,0,0,0,4.75,1.67c.91-.06.92-1.49,0-1.43s-3.54,0-3.85-1.46c-.19-.89.67.84.68,1a4.24,4.24,0,0,1-.67,2.36c-.43.81.8,1.53,1.23.72Z"/><path class="cls-8" d="M196.71,340.66a2.48,2.48,0,0,1-1,1q.16-1.14.5-.14c.56.82,0,1.6-.59,2.25s.39,1.7,1,1c1-1.14,1.8-2.78.82-4.2a2,2,0,0,0-3.06-.53,1.76,1.76,0,0,0,.16,2.84c1.41.79,2.69-.44,3.38-1.55.48-.79-.75-1.51-1.23-.72Z"/><path class="cls-8" d="M225.54,341.2a2.48,2.48,0,0,1-1,1q.16-1.14.5-.14c.56.82,0,1.6-.59,2.25s.39,1.7,1,1c1-1.14,1.8-2.78.82-4.2a2,2,0,0,0-3.06-.53,1.76,1.76,0,0,0,.16,2.84c1.41.79,2.69-.44,3.38-1.55.48-.79-.75-1.51-1.23-.72Z"/><path class="cls-8" d="M203.58,353.69c1.37-1,2.57-2.53,2.13-4.35-.29-1.19-1.71-2.59-2.77-1.25-2.14,2.7,1.95,6.79,4.56,4.24.66-.64-.35-1.66-1-1-1.22,1.2-2.82-.4-2.57-1.78s.46.77.42,1a3.39,3.39,0,0,1-1.47,2c-.73.54,0,1.79.72,1.23Z"/><path class="cls-8" d="M308.12,328l-.05-.09-.11.87.11-.11-.7.18.14,0-.52-.69c0,.36-1.21.91-1.39,1a.87.87,0,0,1-1.11-.21.81.81,0,0,1-.42-.72l.57.18a2.9,2.9,0,0,1,.06,1.29,3.09,3.09,0,0,1-.78,1.52c-.61.69.4,1.7,1,1,1.19-1.33,1.79-3.54.67-5.13a1.59,1.59,0,0,0-2.87.52,2.46,2.46,0,0,0,2.06,3c1.27.18,3.76-.87,3.64-2.42a.73.73,0,0,0-.52-.69.9.9,0,0,0-.94.27.73.73,0,0,0-.11.87l.05.09c.48.78,1.72.06,1.23-.72Z"/><path class="cls-8" d="M309.77,344.37q-.6,1-1.25-.11a2,2,0,0,1,.17-1.29c.6-1,1.27-.23,1.42.6.29,1.6-.95,3.2-2.64,2.57-.86-.32-1.24,1.06-.38,1.38a3.36,3.36,0,0,0,4.43-2.75c.27-1.55-.65-4.53-2.78-3.8-1.62.55-2.19,3.21-1.19,4.49a2.06,2.06,0,0,0,3.6-.71c.18-.9-1.2-1.28-1.38-.38Z"/><g class="cls-24"><path class="cls-25" d="M213.23,195.74c2.55,1,12.66,13.16,32.73,13.16s30.18-12.15,32.73-13.16,16.17-8,7.22-17.53c.11.93-.66,3.16-2,4.95a14.35,14.35,0,0,1-5.19,3.77c-2.55,1-12.66,13.16-32.73,13.16s-30.18-12.15-32.73-13.16a16.14,16.14,0,0,1-4.32-2.79c-1.58-1.56-2.29-3.5-3-4.08C197,189.62,210.65,194.71,213.23,195.74Z"/></g><path class="cls-26" d="M332.26,197.91H284.89a7.52,7.52,0,0,1-7.46-6.56l-8.58-66.18a7.52,7.52,0,0,1,7.46-8.49h64.52a7.52,7.52,0,0,1,7.46,8.49l-8.58,66.18A7.52,7.52,0,0,1,332.26,197.91Zm-40.76-15h34.15l6.63-51.14h-47.4Z"/><path class="cls-26" d="M208.41,197.91H161a7.52,7.52,0,0,1-7.46-6.56L145,125.17a7.52,7.52,0,0,1,7.46-8.49H217a7.52,7.52,0,0,1,7.46,8.49l-8.58,66.18A7.52,7.52,0,0,1,208.41,197.91Zm-40.76-15H201.8l6.63-51.14H161Z"/><path class="cls-26" d="M214.67,155.57l-8.09-12.68c21.3-13.58,49.91-15.56,72.88-5l-6.27,13.67A62.73,62.73,0,0,0,214.67,155.57Z"/><path class="cls-27" d="M224.53,134.05c1.3,5.29,2.19,10.66,3.19,16a63.26,63.26,0,0,1,33.15-2c.82-5.35,1.2-10.75,1.64-16.18A80.35,80.35,0,0,0,224.53,134.05Z"/><path class="cls-28" d="M335.12,78c-4.14-3.32-9.36-4.08-14.94-3.35a6.43,6.43,0,0,0-9.31-7.79,36.33,36.33,0,0,0-9.8,7.84,6.75,6.75,0,0,0-5.83-3.92c-11.32-1-19.22,15.09-21.06,24.12-.82,4.07,2.3,7.56,6.31,8a19.21,19.21,0,0,0,7-1c14.6-4,33.05-6.12,46.29-13.66C337.12,86.27,338.41,80.62,335.12,78Z"/><path class="cls-28" d="M159.23,113.66c4.14-3.32,9.36-4.08,14.94-3.35a6.43,6.43,0,0,1,9.31-7.79,36.33,36.33,0,0,1,9.8,7.84,6.75,6.75,0,0,1,5.83-3.92c11.32-1,19.22,15.09,21.06,24.12.82,4.07-2.3,7.56-6.31,8a19.21,19.21,0,0,1-7-1c-14.6-4-33.05-6.12-46.29-13.66C157.23,121.94,155.94,116.3,159.23,113.66Z"/><path class="cls-4" d="M493.7,453.4a65,65,0,0,1,2-7c1-3.08-.87-6.35-4-7.74H343a11.1,11.1,0,0,1,.41,2.31c.21,3.93-.57,7.7-.06,11.62a9.9,9.9,0,0,1,0,4c.56.13,1.08.25,1.5.38a2.64,2.64,0,0,1,1.45,1.11h146.8A29.49,29.49,0,0,1,493.7,453.4Z"/><path class="cls-3" d="M493.7,449.8a65,65,0,0,1,2-7c1-3.08-.87-6.35-4-7.74H343a11.1,11.1,0,0,1,.41,2.31c.21,3.93-.57,7.7-.06,11.62a9.9,9.9,0,0,1,0,4c.56.13,1.08.25,1.5.38a2.64,2.64,0,0,1,1.45,1.11h146.8A29.49,29.49,0,0,1,493.7,449.8Z"/><path class="cls-4" d="M460.92,435.13c.67-1,2.19-2,2.74-2.86a15,15,0,0,0,.43-2.38c.47-2.33,1.76-4,3-5.77v-3.82a12.45,12.45,0,0,0-.24-2.37c-.61-.5-1.31-1-2-1.65-1.94-1.75-4-3.44-5.33-5.73H345a45.35,45.35,0,0,1-5.28,6.18c.43.45.83.93,1.28,1.37a2.09,2.09,0,0,1,.32,2.51c-2.81,4.1-.3,10,1.31,14.31a18.37,18.37,0,0,1,1.51,1.71,1.84,1.84,0,0,1,1.65-.91H460.69A2,2,0,0,1,460.92,435.13Z"/><path class="cls-3" d="M460.92,432.27c.67-1,2.19-2,2.74-2.86a15,15,0,0,0,.43-2.38c.47-2.33,1.76-4,3-5.77v-3.82a12.45,12.45,0,0,0-.24-2.37c-.61-.5-1.31-1-2-1.65-1.94-1.75-4-3.44-5.33-5.73H345a45.35,45.35,0,0,1-5.28,6.18c.43.45.83.93,1.28,1.37a2.09,2.09,0,0,1,.32,2.51c-2.81,4.1-.3,10,1.31,14.31a18.37,18.37,0,0,1,1.51,1.71,1.84,1.84,0,0,1,1.65-.91H460.69A2,2,0,0,1,460.92,432.27Z"/><path class="cls-28" d="M222.15,247.85a3.14,3.14,0,0,1-.68-6.21c4.06-.91,8.16-2.21,12.12-3.48,3.62-1.15,7.36-2.34,11.16-3.27a86.7,86.7,0,0,1,52.75,3.86,3.15,3.15,0,0,1-2.37,5.83A80.33,80.33,0,0,0,246.24,241c-3.59.88-7.23,2-10.74,3.15-4.09,1.3-8.33,2.65-12.66,3.62A3.08,3.08,0,0,1,222.15,247.85Z"/></g></g></svg>