<?xml version="1.0" encoding="iso-8859-1"?>
<!-- Generator: Adobe Illustrator 24.1.0, SVG Export Plug-In . SVG Version: 6.00 Build 0)  -->
<svg version="1.1" id="Layer_1" xmlns="http://www.w3.org/2000/svg" xmlns:xlink="http://www.w3.org/1999/xlink" x="0px" y="0px"
	 viewBox="0 0 48 48" style="enable-background:new 0 0 48 48;" xml:space="preserve">
<linearGradient id="SVGID_1_" gradientUnits="userSpaceOnUse" x1="28" y1="14.9658" x2="28" y2="6.45">
	<stop  offset="0" style="stop-color:#42A3F2"/>
	<stop  offset="1" style="stop-color:#42A4EB"/>
</linearGradient>
<path style="fill:url(#SVGID_1_);" d="M42,6H14c-1.105,0-2,0.895-2,2v7.003h32V8C44,6.895,43.105,6,42,6z"/>
<linearGradient id="SVGID_2_" gradientUnits="userSpaceOnUse" x1="28" y1="42" x2="28" y2="33.054">
	<stop  offset="0" style="stop-color:#11408A"/>
	<stop  offset="1" style="stop-color:#103F8F"/>
</linearGradient>
<path style="fill:url(#SVGID_2_);" d="M12,33.054V40c0,1.105,0.895,2,2,2h28c1.105,0,2-0.895,2-2v-6.946H12z"/>
<linearGradient id="SVGID_3_" gradientUnits="userSpaceOnUse" x1="28" y1="-15.4595" x2="28" y2="-15.5205">
	<stop  offset="0" style="stop-color:#3079D6"/>
	<stop  offset="1" style="stop-color:#297CD2"/>
</linearGradient>
<path style="fill:url(#SVGID_3_);" d="M12,15.003h32v9.002H12V15.003z"/>
<linearGradient id="SVGID_4_" gradientUnits="userSpaceOnUse" x1="12" y1="28.53" x2="44" y2="28.53">
	<stop  offset="0" style="stop-color:#1D59B3"/>
	<stop  offset="1" style="stop-color:#195BBC"/>
</linearGradient>
<path style="fill:url(#SVGID_4_);" d="M12,24.005h32v9.05H12V24.005z"/>
<path style="opacity:0.05;" d="M22.319,13H12v24h10.319C24.352,37,26,35.352,26,33.319V16.681C26,14.648,24.352,13,22.319,13z"/>
<path style="opacity:0.07;" d="M22.213,36H12V13.333h10.213c1.724,0,3.121,1.397,3.121,3.121v16.425
	C25.333,34.603,23.936,36,22.213,36z"/>
<path style="opacity:0.09;" d="M22.106,35H12V13.667h10.106c1.414,0,2.56,1.146,2.56,2.56V32.44C24.667,33.854,23.52,35,22.106,35z"
	/>
<linearGradient id="SVGID_5_" gradientUnits="userSpaceOnUse" x1="4.7444" y1="14.7444" x2="23.4935" y2="33.4935">
	<stop  offset="0" style="stop-color:#256AC2"/>
	<stop  offset="1" style="stop-color:#1247AD"/>
</linearGradient>
<path style="fill:url(#SVGID_5_);" d="M22,34H6c-1.105,0-2-0.895-2-2V16c0-1.105,0.895-2,2-2h16c1.105,0,2,0.895,2,2v16
	C24,33.105,23.105,34,22,34z"/>
<path style="fill:#FFFFFF;" d="M18.403,19l-1.546,7.264L15.144,19h-2.187l-1.767,7.489L9.597,19H7.641l2.344,10h2.352l1.713-7.689
	L15.764,29h2.251l2.344-10H18.403z"/>
</svg>